<svg xmlns="http://www.w3.org/2000/svg" viewBox="0 0 850 1100"><title>ic-download-doc</title><g><path d="M790,1100H60a60,60,0,0,1-60-60V60A60,60,0,0,1,60,0H500.33L850,349.67V1040A60,60,0,0,1,790,1100ZM562,203.09V269a20,20,0,0,0,20,20h65.91Zm188,188L747.91,389H522a60,60,0,0,1-60-60V103.09L458.91,100H120a20,20,0,0,0-20,20V980a20,20,0,0,0,20,20H730a20,20,0,0,0,20-20ZM629,936H221a60,60,0,0,1-57.82-43.92A19.91,19.91,0,0,1,161,883V831a20,20,0,0,1,20-20h23a20,20,0,0,1,20,20v32a20,20,0,0,0,20,20H605a20,20,0,0,0,20-20V831a20,20,0,0,1,20-20h23a20,20,0,0,1,20,20l1,45A60,60,0,0,1,629,936ZM196,621H346V456H496V621H646L421,846Z"/></g></svg>