<svg xmlns="http://www.w3.org/2000/svg" viewBox="0 0 64.41 64.41"><title>ic-instagram</title><path d="M32.21,38.92a6.33,6.33,0,1,0-6.35-6.32A6.29,6.29,0,0,0,32.21,38.92Zm9-6.32a9,9,0,0,1-18,0,8.85,8.85,0,0,1,.36-2.48H19.2V42.34a3.38,3.38,0,0,0,3.37,3.39H41.82a3.39,3.39,0,0,0,3.39-3.39V30.12H40.85A9.24,9.24,0,0,1,41.22,32.6Zm-2.8-5.47h4.74A1.14,1.14,0,0,0,44.3,26V21.25a1.14,1.14,0,0,0-1.14-1.14H38.42a1.14,1.14,0,0,0-1.14,1.14V26A1.14,1.14,0,0,0,38.42,27.13ZM32.21,0a32.21,32.21,0,1,0,32.2,32.21A32.21,32.21,0,0,0,32.21,0Zm15.6,42.78a5,5,0,0,1-5,5H21.64a5,5,0,0,1-5-5V21.64a5,5,0,0,1,5-5H42.78a5,5,0,0,1,5,5Z"/></svg>