<svg xmlns="http://www.w3.org/2000/svg" viewBox="0 0 64.41 64.41"><title>ic-pinterest</title><path d="M32.21,0a32.21,32.21,0,1,0,32.2,32.21A32.21,32.21,0,0,0,32.21,0ZM35,40.43a5.3,5.3,0,0,1-4.54-2.32s-1.08,4.29-1.31,5.12a20.09,20.09,0,0,1-3.36,6.09.25.25,0,0,1-.44-.11,20.87,20.87,0,0,1,0-7.07C25.76,40.63,27.8,32,27.8,32a7.1,7.1,0,0,1-.6-2.94c0-2.76,1.6-4.82,3.59-4.82A2.49,2.49,0,0,1,33.3,27c0,1.7-1.08,4.25-1.64,6.61a2.88,2.88,0,0,0,2.94,3.58c3.52,0,5.9-4.53,5.9-9.89,0-4.08-2.75-7.14-7.75-7.14a8.82,8.82,0,0,0-9.16,8.92,5.38,5.38,0,0,0,1.23,3.65.91.91,0,0,1,.27,1c-.09.35-.3,1.17-.38,1.5a.64.64,0,0,1-.94.46C21.17,34.69,20,31.84,20,28.64,20,23.36,24.42,17,33.26,17c7.11,0,11.79,5.14,11.79,10.66C45.05,35,41,40.43,35,40.43Z"/></svg>