<svg xmlns="http://www.w3.org/2000/svg" viewBox="0 0 64.41 64.41"><title>ic-twitter</title><path d="M32.21,0a32.21,32.21,0,1,0,32.2,32.21A32.21,32.21,0,0,0,32.21,0ZM44.47,27.65c0,.27,0,.54,0,.82,0,8.36-6.37,18-18,18h0a17.91,17.91,0,0,1-9.7-2.83,12.58,12.58,0,0,0,1.5.09A12.72,12.72,0,0,0,26.15,41a6.35,6.35,0,0,1-5.91-4.4,6.29,6.29,0,0,0,2.86-.11A6.32,6.32,0,0,1,18,30.3v-.08a6.27,6.27,0,0,0,2.87.79,6.33,6.33,0,0,1-2-8.44,18,18,0,0,0,13,6.61,6.33,6.33,0,0,1,10.78-5.77,12.6,12.6,0,0,0,4-1.54A6.36,6.36,0,0,1,44,25.37a12.4,12.4,0,0,0,3.63-1A12.76,12.76,0,0,1,44.47,27.65Z"/></svg>