<svg xmlns="http://www.w3.org/2000/svg" viewBox="0 0 64.42 64.42"><title>ic-youtube.svg</title><g id="Layer_2" data-name="Layer 2"><g id="Layer_1-2" data-name="Layer 1"><path d="M53.48,36.56a.81.81,0,0,1-.84.75c-.64,0-.91-.48-.9-1.43V34h3.71V31.92a4,4,0,0,0-.6-2.42,2.62,2.62,0,0,0-2.21-1.08,2.66,2.66,0,0,0-2.23,1.08A4.11,4.11,0,0,0,49.78,32v3.61A3.83,3.83,0,0,0,50.43,38,2.67,2.67,0,0,0,52.69,39,2.58,2.58,0,0,0,55,37.89a2.67,2.67,0,0,0,.43-1.12,10.34,10.34,0,0,0,.07-1.21v-.29h-2C53.49,36,53.5,36.46,53.48,36.56Zm-1.74-5.21c0-1,.26-1.23.89-1.23s.86.29.86,1.24v1.12H51.74Z"/><path d="M48.3,29.6a1.52,1.52,0,0,0-1.5-1.2,2.67,2.67,0,0,0-2,1.17V25.06H43V38.87h1.85v-1a2.64,2.64,0,0,0,2,1.17,1.53,1.53,0,0,0,1.54-1.17,8.06,8.06,0,0,0,.21-2.06V31.66A7.44,7.44,0,0,0,48.3,29.6Zm-1.71,6.29c0,1-.25,1.42-.78,1.42a1.45,1.45,0,0,1-1-.47V30.59a1.47,1.47,0,0,1,1-.47c.53,0,.78.3.78,1.33Z"/><path d="M39.48,36.4c-.42.59-.76.91-1.13.91s-.38-.1-.42-.39V28.57H36v8.14a4,4,0,0,0,.22,1.51,1.23,1.23,0,0,0,1.23.8,2.93,2.93,0,0,0,2.06-1.28v1.13h2V28.57h-2Z"/><polygon points="36.28 25.06 29.79 25.07 29.79 27.02 31.95 27.02 31.95 38.87 34.01 38.87 34.01 27.02 36.28 27.02 36.28 25.06"/><path d="M16,30.15c-.61,0-.93.48-.83,1.51v4.12c-.1,1,.22,1.54.83,1.54s.92-.51.82-1.54V31.66C16.9,30.63,16.58,30.15,16,30.15Z"/><path d="M32.22,0a32.21,32.21,0,1,0,32.2,32.22h0A32.21,32.21,0,0,0,32.22,0ZM11,38.87H9V33.21S6.83,26.26,6.39,25H8.55L10,30.39,11.44,25h2.17L11,33.21Zm7.73-3.29A3.86,3.86,0,0,1,18.18,38,2.75,2.75,0,0,1,16,39.05,2.71,2.71,0,0,1,13.79,38a3.79,3.79,0,0,1-.6-2.39V31.87a4.15,4.15,0,0,1,.62-2.48,2.47,2.47,0,0,1,2.17-1,2.6,2.6,0,0,1,2.16,1,4.2,4.2,0,0,1,.62,2.48Zm6.9,3.29H23.71V37.74A2.93,2.93,0,0,1,21.65,39a1.23,1.23,0,0,1-1.23-.8,4,4,0,0,1-.22-1.51V28.46h2v8.46c.05.29.17.39.42.39s.71-.32,1.13-.91V28.46h1.95ZM58,33.37a45.83,45.83,0,0,1-.31,5,6.62,6.62,0,0,1-1.22,3,4.45,4.45,0,0,1-3.08,1.3c-4.31.3-10.78.31-10.78.31s-8-.07-10.46-.3a5.25,5.25,0,0,1-3.4-1.31,6.62,6.62,0,0,1-1.22-3,45.83,45.83,0,0,1-.31-5V31a45.83,45.83,0,0,1,.31-5,6.62,6.62,0,0,1,1.22-3,4.4,4.4,0,0,1,3.09-1.29c4.3-.31,10.76-.31,10.76-.31h0s6.46,0,10.77.31A4.38,4.38,0,0,1,56.5,23a6.62,6.62,0,0,1,1.22,3A45.83,45.83,0,0,1,58,31Z"/></g></g></svg>